<?xml version="1.0" encoding="utf-8"?>
<!-- Generator: Adobe Illustrator 27.0.1, SVG Export Plug-In . SVG Version: 6.00 Build 0)  -->
<svg version="1.1" id="Layer_1" xmlns="http://www.w3.org/2000/svg" xmlns:xlink="http://www.w3.org/1999/xlink" x="0px" y="0px"
	 viewBox="0 0 31 31" style="enable-background:new 0 0 31 31;" xml:space="preserve">
<style type="text/css">
	.st0{fill:#FFFFFF;}
</style>
<path id="Union_1" class="st0" d="M27.2,30.7L15.5,19L3.8,30.7c-0.4,0.4-1,0.4-1.4,0l-2.1-2.1c-0.4-0.4-0.4-1,0-1.4c0,0,0,0,0,0
	L12,15.5L0.3,3.8c-0.4-0.4-0.4-1,0-1.4l2.1-2.1c0.4-0.4,1-0.4,1.4,0L15.5,12L27.2,0.3c0.4-0.4,1-0.4,1.4,0c0,0,0,0,0,0l2.1,2.1
	c0.4,0.4,0.4,1,0,1.4L19,15.5l11.7,11.7c0.4,0.4,0.4,1,0,1.4c0,0,0,0,0,0l-2.1,2.1C28.2,31.1,27.6,31.1,27.2,30.7
	C27.2,30.7,27.2,30.7,27.2,30.7z"/>
</svg>
