<?xml version="1.0" encoding="utf-8"?>
<!-- Generator: Adobe Illustrator 27.0.1, SVG Export Plug-In . SVG Version: 6.00 Build 0)  -->
<svg version="1.1" id="Layer_1" xmlns="http://www.w3.org/2000/svg" xmlns:xlink="http://www.w3.org/1999/xlink" x="0px" y="0px"
	 viewBox="0 0 100 100" style="enable-background:new 0 0 100 100;" xml:space="preserve">
<g id="Group_4" transform="translate(-1281 -336)">
	<path id="Rectangle_156" d="M1315.9,353.5c-9.6,0-17.4,7.8-17.4,17.4v30.2c0,9.6,7.8,17.4,17.4,17.4h30.2c9.6,0,17.4-7.8,17.4-17.4
		v-30.2c0-9.6-7.8-17.4-17.4-17.4H1315.9 M1315.9,348.9h30.2c12.2,0,22.1,9.9,22.1,22.1v30.2c0,12.2-9.9,22.1-22.1,22.1h-30.2
		c-12.2,0-22.1-9.9-22.1-22.1v-30.2C1293.8,358.7,1303.7,348.9,1315.9,348.9z"/>
	<path id="Rectangle_157" d="M1331,372.1c-7.7,0-13.9,6.2-13.9,13.9c0,7.7,6.2,13.9,13.9,13.9c7.7,0,13.9-6.2,13.9-13.9
		c0-3.7-1.5-7.2-4.1-9.9C1338.2,373.5,1334.7,372.1,1331,372.1 M1331,367.4c10.3,0,18.6,8.3,18.6,18.6s-8.3,18.6-18.6,18.6
		s-18.6-8.3-18.6-18.6S1320.7,367.4,1331,367.4z"/>
	<circle id="Ellipse_11" cx="1351.9" cy="366.3" r="4.6"/>
</g>
</svg>
