<?xml version="1.0" encoding="utf-8"?>
<!-- Generator: Adobe Illustrator 27.0.1, SVG Export Plug-In . SVG Version: 6.00 Build 0)  -->
<svg version="1.1" id="Livello_1" xmlns="http://www.w3.org/2000/svg" xmlns:xlink="http://www.w3.org/1999/xlink" x="0px" y="0px"
	 viewBox="0 0 42.3 29.6" style="enable-background:new 0 0 42.3 29.6;" xml:space="preserve">
<g>
	<path d="M21.2,26.3c-1.8,0-3.6-0.6-5-1.7c-0.2-0.1-0.2-0.4,0-0.5c0.1-0.1,0.3-0.2,0.5-0.1c1.3,1,2.9,1.5,4.6,1.5
		c1.6,0,3.2-0.5,4.5-1.5c0.2-0.1,0.4-0.1,0.5,0.1l0,0c0.1,0.2,0.1,0.4-0.1,0.5C24.7,25.7,23,26.3,21.2,26.3L21.2,26.3z"/>
	<path d="M14.6,22.8c-0.1,0-0.2-0.1-0.3-0.2c-1-1.4-1.5-3.1-1.5-4.8c0-4.6,3.8-8.4,8.4-8.4s8.4,3.8,8.4,8.4c0,1.7-0.5,3.3-1.4,4.7
		c-0.1,0.2-0.3,0.2-0.5,0.1s-0.2-0.3-0.1-0.5l0,0c2.4-3.5,1.4-8.3-2.1-10.7s-8.3-1.4-10.7,2.1c-0.8,1.3-1.3,2.8-1.3,4.3
		c0,1.6,0.5,3.1,1.4,4.4c0.1,0.2,0.1,0.4-0.1,0.5C14.7,22.8,14.7,22.8,14.6,22.8L14.6,22.8z"/>
	<path d="M21.3,21.2c-1.2,0-2.2-1-2.2-2.2s1-2.2,2.2-2.2s2.2,1,2.2,2.2l0,0C23.5,20.3,22.5,21.2,21.3,21.2L21.3,21.2z M21.3,17.5
		c-0.9,0-1.6,0.7-1.6,1.6s0.7,1.6,1.6,1.6s1.6-0.7,1.6-1.6l0,0l0,0C22.9,18.2,22.2,17.5,21.3,17.5z"/>
	<path d="M19.7,18.1c-0.2,0-0.4-0.2-0.4-0.4l0,0V10c0-0.2,0.2-0.4,0.4-0.3c0.2,0,0.3,0.2,0.3,0.3v7.8C20.1,18,19.9,18.1,19.7,18.1
		L19.7,18.1L19.7,18.1z"/>
	<path d="M22.9,18.2c-0.2,0-0.4-0.2-0.4-0.4l0,0V10c0-0.2,0.2-0.4,0.4-0.3c0.2,0,0.3,0.2,0.3,0.3v7.8C23.2,18.1,23.1,18.2,22.9,18.2
		L22.9,18.2L22.9,18.2z"/>
	<path d="M21.3,21.4c-2.8,0.1-5.6-0.6-8-2.1c-0.2-0.1-0.2-0.3-0.1-0.5s0.3-0.2,0.5-0.1l0,0c3.9,2.6,11.6,2.6,15.1-0.1
		c0.2-0.1,0.4-0.1,0.5,0.1s0.1,0.4-0.1,0.5C26.9,20.8,24.1,21.5,21.3,21.4L21.3,21.4z"/>
	<path d="M22.9,18.3c-0.2,0-0.4-0.2-0.4-0.4c0-0.2,0.1-0.4,0.3-0.4c2.1-0.2,4.1-0.8,6-1.9c0.2-0.1,0.4,0,0.5,0.1
		c0.1,0.2,0.1,0.4-0.1,0.5C27.3,17.5,25.2,18.1,22.9,18.3L22.9,18.3L22.9,18.3z"/>
	<path d="M19.5,18.4L19.5,18.4c-2.2-0.3-4.2-0.9-6.1-2c-0.2-0.1-0.2-0.3-0.2-0.5c0.1-0.2,0.3-0.2,0.5-0.2l0,0c1.8,1,3.7,1.6,5.8,1.9
		c0.2,0,0.3,0.2,0.3,0.4C19.8,18.2,19.7,18.4,19.5,18.4L19.5,18.4z"/>
	<circle cx="21.3" cy="11.4" r="0.6"/>
	<circle cx="21.3" cy="13.4" r="0.6"/>
	<circle cx="21.3" cy="15.4" r="0.6"/>
	<ellipse cx="25.2" cy="19.1" rx="0.6" ry="0.6"/>
	<ellipse cx="27.5" cy="18.3" rx="0.6" ry="0.6"/>
	<ellipse cx="17.3" cy="19" rx="0.6" ry="0.6"/>
	<ellipse cx="15.1" cy="18.3" rx="0.6" ry="0.6"/>
	<path d="M21.3,24.9c-9.4,0-19.1-2-19.1-5.5c0-2.3,4.3-4.2,11.5-5.1l0.6-0.1l-0.6,1.9h-0.2c-4.6,0.8-6.2,2-6.2,2.8
		c0,1.6,5.7,3.4,14,3.4s14-1.8,14-3.4c0-0.8-1.6-2.1-6.2-2.8h-0.2l-0.6-2l0.6,0.1c5.5,0.8,11.5,2.5,11.5,5.2
		C40.4,22.8,30.7,24.9,21.3,24.9L21.3,24.9z M13.3,15.2C6.2,16.1,3,18,3,19.5c0,2.3,7.4,4.7,18.4,4.7s18.4-2.4,18.4-4.7
		c0-1.8-4.3-3.5-10.6-4.3l0.2,0.5c2.6,0.5,6.6,1.5,6.6,3.5c0,2.7-7.6,4.1-14.7,4.1S6.6,21.8,6.6,19.2c0-2.1,4-3.1,6.6-3.5L13.3,15.2
		L13.3,15.2z"/>
	<path d="M24.1,10.8c-1.2-1-2.4-3.3-1.8-4.3C22.5,6.2,22.7,6,23,6c0.9,0.1,1.7,0.4,2.3,1V3.6c-1,0.8-2,1.2-2.8,0.4
		c-0.7-0.7,0.1-2.3,0.6-3.3h-3.7c1,1.8,1,2.8,0.7,3.2c-0.6,0.7-1.5,0.6-2.8-0.3V7c0.6-0.6,1.4-1,2.3-1c0.3,0,0.6,0.2,0.7,0.5
		c0.7,1.2-0.8,3.2-1.9,4.2l-0.5-0.5C19,9.1,20,7.6,19.6,6.9c0-0.1-0.1-0.1-0.2-0.1c-0.5-0.1-1.7,0.8-2.3,1.4l-0.6,0.6V2.1l0.6,0.5
		c1.9,1.5,2.2,1,2.4,0.9c0.1-0.1,0.1-1-1-2.9L18.1,0h6.3L24,0.6c-0.7,1.1-1.3,2.6-1.1,2.9c0.4,0.3,0.9,0.5,2.5-1L26.1,2v6.7
		l-0.7-0.6c-0.6-0.6-1.8-1.5-2.3-1.4c-0.1,0-0.1,0.1-0.2,0.1c-0.3,0.5,0.5,2.5,1.6,3.4L24.1,10.8z"/>
	<path d="M21.3,7.3c-1.2,0-2.1-0.9-2.1-2.1C19.1,4,20.1,3,21.3,3s2.1,1,2.1,2.1l0,0C23.4,6.3,22.4,7.3,21.3,7.3L21.3,7.3z M21.3,3.7
		c-0.8,0-1.5,0.7-1.5,1.5s0.7,1.5,1.5,1.5s1.5-0.7,1.5-1.5C22.7,4.3,22.1,3.7,21.3,3.7L21.3,3.7z"/>
</g>
</svg>
