<?xml version="1.0" encoding="utf-8"?>
<!-- Generator: Adobe Illustrator 27.0.1, SVG Export Plug-In . SVG Version: 6.00 Build 0)  -->
<svg version="1.1" id="Livello_1" xmlns="http://www.w3.org/2000/svg" xmlns:xlink="http://www.w3.org/1999/xlink" x="0px" y="0px"
	 viewBox="0 0 162.4 100.5" style="enable-background:new 0 0 162.4 100.5;" xml:space="preserve">
<g>
	<circle cx="40.3" cy="41.4" r="3.1"/>
	<circle cx="64.2" cy="41.4" r="3.1"/>
	<path d="M44.7,63.3c-0.7,0-1.2-0.4-1.4-1c-1-4.9-1-10,0-14.9c0.2-0.7,0.8-1.1,1.5-1c1,0,0.8-1,0.8-1h-10c-0.5,0-0.7,1,0.3,1
		c0.7-0.1,1.3,0.4,1.5,1c1,4.9,1,10,0,14.9c-0.1,0.7-0.8,1.1-1.4,1c-1,0-1,1.1-0.2,1.1h9C45.7,64.3,45.7,63.3,44.7,63.3z"/>
	<path d="M68.5,63.3c-0.7,0-1.2-0.4-1.4-1c-0.5-2.5-0.8-5-0.8-7.5c-0.1-2.2,0.1-4.4,0.6-6.6c0.1-0.7,0.3-1.5,0.5-2.2
		c0.2-0.4,0.1-0.8-0.7-0.8h-7.3c-0.5,0-0.7,1,0.3,1c0.7-0.1,1.3,0.4,1.5,1c1,4.9,1,10,0,14.9c-0.1,0.7-0.8,1.1-1.4,1
		c-1,0-1,1.1-0.2,1.1h9C69.5,64.3,69.5,63.3,68.5,63.3z"/>
	<path d="M161.6,96.1c-0.7,0.1-1.3-0.4-1.5-1c-0.6-3-0.8-6.9-0.8-13.2c0-4.3,0.3-8.7,0.8-13c0.1-0.7,0.2-0.9,0.2-1.2s-0.2-0.8-1-0.8
		h-6.6c-0.9,0-0.9,1,0.1,1c0.6,0,1.2,0.4,1.4,1c0.5,2.2,0.7,4.5,0.8,6.8v2.5c-0.2,0.3-0.5,0.5-0.7,0.3c-1.1-1-2.6-1.5-4.1-1.4
		c-2.8,0-7.3,3.8-7.3,10.4s3.2,10.1,6,10.1c4,0,4.9-3.6,5.6-3c-0.1,0.6-0.2,1.2-0.4,1.7c-0.2,0.4-0.1,0.7,0.7,0.7h7.3
		C162.5,97.1,162.6,96.1,161.6,96.1z M154,92.1c-0.9,0.9-2.2,1.3-3.4,1c-1.5-0.4-2.8-2.1-3.3-3.5c-0.4-1.1-0.6-2.3-0.6-3.4
		c-0.2-2.4,0.6-8,4.1-8c2.1,0,3.5,2.1,4.2,4.5v5.1c0,0.9,0,1.6-0.1,2.3C154.8,90.7,154.5,91.5,154,92.1L154,92.1z"/>
	<path d="M61.6,45.4l-1.7-0.2c-1,0-5.2,0-5.7,0s-0.5,0.5-0.2,0.6c1.3,0.7,2,2,1.8,3.5c-0.5,1.8-1.3,3.5-2.2,5.1
		c-0.2,0.4-0.6,0.5-0.8,0.2c-1.1-2.3-1.8-4.7-2-7.2c0-0.4-0.1-0.9,0.5-1.1s0.6-1.1,0-1.1h-7.5c-1.1,0-0.5,0.9,0.3,2.1
		c1.7,2.3,3.1,4.9,4.2,7.5c1,2.5,1.9,5,2.6,7.6c0.1,0.4,0.6,2.5,0.7,2.7c0.1,0.3,0.5,0.4,0.6,0c0.8-3.2,1.5-4.5,3.4-6.1
		c0.9-0.8,0.1-1.2-0.3-1.5c-0.4-0.3-0.8-0.6-1.1-0.9c-0.1-0.3,0-0.6,0.1-0.8c0.4-0.7,2.4-5.8,3-6.7c0.8-1.4,2.1-2.5,3.7-2.9
		C62,46,61.6,45.4,61.6,45.4z"/>
	<path d="M85,50.1c-0.7-2.9-7-7.8-13.4-2.4c-6.7,5.9-2,16.8,5.2,16.8s8-5.6,7.7-7.4c0,0-0.3-1.2-1.1,0c-4.8,5-8.7,1.1-9.2-0.2
		c1-0.6,10.4-5.5,10.4-5.5C84.9,51,85.1,50.5,85,50.1z M79.5,52.3c-1.8,1.1-3.6,2.2-5.5,3.1c-0.3,0.1-0.6,0.4-1.1-0.6l-0.3-0.6
		c-0.2-0.5-0.3-1-0.5-1.5c-1.3-5,3.5-6.5,5.8-5.6S80.2,51.7,79.5,52.3L79.5,52.3z"/>
	<path d="M140.8,50.1c-0.7-2.9-7-7.8-13.4-2.4c-6.7,5.9-2,16.8,5.2,16.8c7.2,0,8-5.6,7.7-7.4c0,0-0.3-1.2-1.1,0
		c-4.8,5-8.7,1.1-9.2-0.2c1-0.6,10.4-5.5,10.4-5.5S141,50.7,140.8,50.1L140.8,50.1z M135.3,52.3c-1.8,1.1-3.6,2.2-5.5,3.1
		c-0.3,0.1-0.6,0.4-1.1-0.6l-0.3-0.6c-0.2-0.5-0.3-1-0.5-1.5c-1.3-5,3.5-6.5,5.8-5.6S136,51.7,135.3,52.3L135.3,52.3z"/>
	<path d="M53.3,82.3c-0.7-3.1-7.1-8.4-13.8-2.6c-6.9,6.3-2.1,18,5.3,18s8.3-6,7.9-7.9c0,0-0.3-1.3-1.1,0c-4.9,5.4-8.9,1.2-9.4-0.2
		c1-0.6,10.7-5.9,10.7-5.9C53.1,83.3,53.3,82.8,53.3,82.3z M47.6,84.7c-1.8,1.2-3.7,2.3-5.7,3.3c-0.3,0.1-0.7,0.5-1.1-0.7l-0.3-0.6
		c-0.2-0.5-0.3-1.1-0.5-1.6c-1.3-5.4,3.6-7,5.9-6S48.3,84,47.6,84.7z"/>
	<path d="M122.7,63.7c-0.1-0.2-0.3-0.4-0.7-0.4c-0.6,0-1.2-0.4-1.3-1c0-0.4,0-0.7,0.1-1.1c0.6-1.6,1.4-3,1.9-4.6
		c0.7-1.9,1-3.9,0.8-5.9c-0.2-1.5-0.9-2.9-2-4c-1.9-2-4.9-2.3-7.3-0.8c-0.4,0.3-1.2,0.9-1.7,0.9c-0.4,0-0.5-0.3-0.5-0.5
		c0-0.1,0.1-0.2,0.1-0.3c0.2-0.4,0.1-0.8-0.7-0.8h-7.3c-0.5,0-0.7,1,0.3,1c0.7-0.1,1.3,0.4,1.5,1c1,4.9,1,10,0,14.9
		c-0.2,0.7-0.8,1.1-1.5,1c-0.5,0-0.9,0-1.4,0c-0.4,0-0.8-0.1-1.1-0.4c-0.2-0.3-0.4-0.6-0.5-0.9c-0.1-0.4,0-0.8,0.1-1.2
		c0.6-1.6,1.3-2.6,1.8-4.2c0.7-1.9,1-3.9,0.8-5.9c-0.2-1.5-0.9-2.9-2-4c-1.9-2-4.9-2.3-7.3-0.8c-0.4,0.3-1.2,0.9-1.7,0.9
		c-0.4,0-0.5-0.3-0.5-0.5c0-0.1,0.1-0.2,0.1-0.3c0.2-0.4,0.1-0.8-0.7-0.8H85c-0.5,0-0.7,1,0.3,1c0.7-0.1,1.3,0.4,1.5,1
		c1,4.9,1,10,0,14.9c-0.1,0.7-0.8,1.1-1.4,1c-1,0-1,1.1-0.2,1.1h9c0.9,0,0.9-1-0.1-1c-0.7,0-1.2-0.4-1.4-1c-0.5-2.5-0.8-5-0.8-7.5
		c0-1.8-0.2-4.1,0.9-5.6c0.5-0.8,1.4-1.4,2.4-1.5c0.7-0.1,1.4,0.2,2,0.6c2.1,1.6,2.1,6.2,0.2,11.9c-1.2,3.4-0.2,4-0.1,4.1
		s0.4,0.1,0.6,0.1l6.9,0h8.6c0.9,0,0.9-1-0.1-1c-0.7,0-1.2-0.4-1.4-1c-0.5-2.5-0.8-5-0.8-7.5c0-1.8-0.2-4.1,0.9-5.6
		c0.5-0.8,1.4-1.4,2.4-1.5c0.7-0.1,1.4,0.2,2,0.6c2.1,1.6,2.1,6.2,0.2,11.9c-1.2,3.4-0.2,4-0.1,4.1s0.4,0.1,0.6,0.1l5.1,0l0,0
		C122.7,64.3,122.8,64,122.7,63.7L122.7,63.7z"/>
	<path d="M66.9,86c-1.8-1-3.9-1.3-5.8-2.1c-1.5-0.6-3.6-1.6-3.4-3.5c0.3-2.6,2.9-3.2,4.7-3c0.4,0.1,1.9,0.4,1.4,1.2
		c-1.3,1-1.5,2.8-0.5,4.1s2.8,1.5,4.1,0.5c0.7-0.6,1.1-1.4,1.1-2.3v-0.1c0-0.7-0.2-1.3-0.6-1.8l0,0c-0.1-0.1-0.2-0.2-0.3-0.3
		c-1.8-1.8-4.5-2.9-8.1-2.2c-3.8,0.7-5.9,3.9-5.7,5.9s0.6,4.2,8.9,7.2c3.6,1.3,4.1,4.1,2.5,5.6c-1,0.8-2.2,1.2-3.4,1.1
		c-1.6,0-3.5-0.4-3.3-1.4c0.9-0.5,1.4-1.4,1.4-2.4c-0.1-1.7-1.5-3.1-3.2-3.2c-1.7,0-3.1,1.4-3.1,3.1c0,0.7,0.2,1.4,0.7,1.9h0
		c1.4,1.4,3.1,2.4,5.1,2.9C62.9,98.1,67,97,69,94c0.6-0.8,0.9-1.8,0.9-2.9C69.9,89,68.7,87.1,66.9,86z"/>
	<path d="M82.2,87.3c-0.7-1.2-1.4-0.3-0.8,0.6c0.3,0.8,0.5,1.6,0.5,2.4c0.2,1.4,0.1,3.1-1,4.2c-0.3,0.3-0.8,0.5-1.3,0.6
		c-1.6,0-2.3-1.3-2.3-3.4c0-1.3,0-7.7,0-13c0.3-0.2,0.7-0.4,1.1-0.4c1.1,0,2,0.7,2.5,1.6l0.8-2.5h-3.6c-0.3,0-0.5-0.1-0.8-0.2v-5.5
		c0,0,0,0,0,0c0-0.6-0.6-0.8-0.8,0.2c-0.6,3.2-6.2,5.7-6.6,5.8s-0.5,0.7,0.2,0.7c0.7,0,1.6-0.6,1.9,0.9c0,4,0,11.8,0,12.5
		c0,1,0.3,5.3,5.5,5.3C82.9,97.2,84.1,90.9,82.2,87.3z"/>
	<path d="M108.3,77.4c-0.4,0-1.7,0-1.7,0c-1,0-5.2,0-5.7,0s-0.5,0.5-0.2,0.6c1.3,0.7,2,2,1.8,3.5c-0.5,1.8-1.3,3.5-2.2,5.1
		c-0.2,0.4-0.6,0.5-0.8,0.2c-1.1-2.3-1.8-4.7-2-7.2c0-0.4-0.1-0.9,0.5-1.1s0.6-1.1,0-1.1h-7.5c-1.1,0,0,0.9,0.9,2.1
		c0.1,0.1,0.5,0.8,1,1.8c0,0.1,0,0.1,0,0.2C91.7,83.3,91,85,90,86.6c-0.2,0.4-0.6,0.5-0.8,0.2c-1.1-2.3-1.8-4.7-2-7.2
		c0-0.4-0.1-0.9,0.5-1.1s0.6-1.1,0-1.1h-7.5c-1.1,0-0.5,0.9,0.3,2.1c1.7,2.3,3.1,4.9,4.2,7.5c1,2.5,1.9,5,2.6,7.6
		c0.1,0.4,0.6,2.5,0.7,2.7c0.1,0.3,0.5,0.4,0.6,0c0.8-3.2,1.5-4.5,3.4-6.1c0.9-0.8,0.1-1.2-0.3-1.5c-0.4-0.3-0.8-0.6-1.1-0.9
		c-0.1-0.3,0-0.6,0.1-0.8c0.3-0.5,1.4-3.4,2.3-5.2c0.7,1.4,1.3,2.8,1.9,4.2c1,2.5,1.9,5,2.6,7.6c0.1,0.4,0.6,2.5,0.7,2.7
		c0.1,0.3,0.5,0.4,0.6,0c0.8-3.2,1.5-4.5,3.4-6.1c0.9-0.8,0.1-1.2-0.3-1.5c-0.4-0.3-0.8-0.6-1.1-0.9c-0.1-0.3,0-0.6,0.1-0.8
		c0.4-0.7,2.4-5.8,3-6.7c0.8-1.5,2.1-2.5,3.8-2.9c0.3,0,0.6-0.1,0.9-0.3C109,77.8,108.8,77.4,108.3,77.4z"/>
	<path d="M91.1,79.2c-0.3-0.4-1.1-1.1-1.6-1.1c-0.2,0-0.4-0.2-0.4-0.4c0-0.2,0.2-0.4,0.4-0.4c0,0,0,0,0.1,0c0.7,0,2.8,0,2.8,0
		l-0.1,1.8"/>
	<path d="M113.6,76.2c-0.3-0.4-1.1-0.1-1.6,0.1c-1.7,0.8-3.1,2-4.4,3.3c-2.5,3-3.4,7-2.4,10.7c1.9,6.1,8.7,9.1,13.5,5.9
		c3.1-2.1,4.5-5.8,4.4-9.5c0-1.2-0.2-2.3-0.6-3.5c-0.9-3.1-4-6.4-7.6-5.6c-1.2,0.3-2.3,0.9-3.2,1.8c-1,1.4,0.3,1.3,1,1.3
		c4.3-0.1,6.2,4.2,6.8,6.1c0.7,2.3,1.2,6.8-1.7,7.8c-2.6,0.9-5.1-1.5-6.5-3.5c-0.5-0.8-0.9-1.6-1.3-2.5c-2.2-4.9-0.7-9.1,2.3-11.2
		C113.5,76.8,113.8,76.6,113.6,76.2z"/>
	<path d="M132.6,76.2c-0.3-0.4-1.1-0.1-1.6,0.1c-1.7,0.8-3.1,2-4.4,3.3c-2.5,3-3.4,7-2.4,10.7c1.9,6.1,8.7,9.1,13.5,5.9
		c3.1-2.1,4.5-5.8,4.4-9.5c0-1.2-0.2-2.3-0.6-3.5c-0.9-3.1-4-6.4-7.6-5.6c-1.2,0.3-2.3,0.9-3.2,1.8c-1,1.4,0.3,1.3,1,1.3
		c4.3-0.1,6.2,4.2,6.8,6.1c0.7,2.3,1.2,6.8-1.7,7.8c-2.6,0.9-5.1-1.5-6.5-3.5c-0.5-0.8-0.9-1.6-1.3-2.5c-2.2-4.9-0.7-9.1,2.3-11.2
		C132.5,76.8,132.8,76.6,132.6,76.2L132.6,76.2z"/>
	<path d="M41.9,68.3h-0.1c-0.4,0-2.1,0-2.1,0H38l-3.6,0h-1.2c-0.6,0-0.5,0.5-0.2,0.7c1.7,0.9,2.7,2.6,2.6,4.5
		c0,1.1-1.9,10.5-2.9,14.4c-0.1,0.2-0.3,0.3-0.4,0c-0.5-1.6-1-3.5-1.5-5.4c-1.2-4.2-2.4-8.7-3-11.2l0-0.1c0-0.2-0.1-0.4-0.1-0.6
		c-0.1-0.5,0.1-1,0.5-1.3l0.1,0c0.3-0.2,0.7-0.2,0.9-0.4c0.4-0.3,0.2-0.7-0.2-0.7h-0.1c-0.4,0-2.1,0-2.1,0h-1.7l-3.6,0h-1.2
		c-0.6,0-0.5,0.5-0.2,0.7c1.1,0.6,1.9,1.6,2.3,2.7l0.1,0.2l0.6,2c0.1,0.5,0.2,1,0,1.5c-0.8,3.1-2.4,8.8-3.1,12
		c-0.1,0.2-0.3,0.3-0.4,0.1c-0.5-1.5-0.9-3.2-1.4-5c-0.8-2.9-1.6-5.8-2.2-8.2c-0.3-1.7,0.7-1.8,1.3-2.4c0.5-0.5-0.2-0.8-0.4-0.8
		c-2.5,0.1-4.6-3.2-8.7-4.3c-0.4-0.1-0.8-0.1-1.3-0.1c-3.7,0-6.7,3-6.7,6.7c-0.1,3.2,2.1,5.9,5.2,6.5c1.9,0.3,3.7-0.8,4.3-2.5
		c0,0,0.3-0.9-0.2-1c-0.4-0.1-0.5,0.4-0.6,0.9c-0.6,1.4-2.2,2.1-3.6,1.7c-2.4-0.5-4.1-2.5-4.1-4.9c0-2.7,2.1-5,4.8-5
		c0.1,0,0.1,0,0.2,0c1.4,0.1,2.6,0.9,3.2,2.1c1.7,5,5.5,18.9,6.6,25.5c0.3,1.4,0.4,3.2,0.4,3.5c0,0.2,0.2,0.4,0.4,0.4
		c0.2,0,0.3-0.1,0.3-0.3c1.1-3.5,2.4-5.3,4.7-6.9c1.1-0.8,1-0.6-0.3-1.7c-0.4-0.3-0.7-0.7-0.9-1.1c-0.2-0.3-0.2-0.7-0.1-1.1
		c0.5-2.5,2.1-8.1,3-11.5c0-0.2,0.2-0.3,0.4-0.2c0.1,0,0.2,0.1,0.2,0.2l0.1,0.2c1.8,6.4,4,14.7,4.6,18.7c0.2,1.4,0.2,3.1,0.3,3.4
		c0.1,0.4,0.6,0.5,0.7,0.1c1.1-3.5,2.4-5.3,4.7-6.9c1.1-0.8,1-0.6-0.3-1.7c-0.2-0.2-0.4-0.4-0.6-0.7c-0.2-0.3-0.3-0.8-0.2-1.2
		c0.8-3.5,2.5-11.4,3-13.2c0.7-2.4,1.9-4.5,3.6-6.4c0.4-0.4,0.8-0.7,1.3-0.9c0.3-0.2,0.7-0.2,0.9-0.4C42.6,68.7,42.4,68.3,41.9,68.3
		L41.9,68.3z"/>
	<path d="M39.6,36.7h-0.1c-0.4,0-2.1,0-2.1,0h-1.7l-3.6,0h-1.2c-0.6,0-0.5,0.5-0.2,0.7c1.7,0.9,2.7,2.6,2.6,4.5
		c0,1-2.3,8.5-3.4,12.9c-0.1,0.1-0.2,0-0.2,0c0,0,0,0,0,0c-0.5-1.5-1.2-3.2-1.7-4.9c-0.8-2.8-1.6-5.8-2.2-8.2
		c-0.3-1.7,0.7-1.8,1.3-2.4c0.5-0.5-0.2-0.8-0.4-0.8c-2.5,0.1-4.6-3.2-8.7-4.2c-0.4-0.1-0.8-0.1-1.3-0.1c-3.7,0-6.7,2.9-6.7,6.6
		c0,0,0,0,0,0v0c-0.1,3.2,2.1,5.9,5.2,6.4c1.8,0.3,3.6-0.8,4.3-2.5c0,0,0.3-0.9-0.2-1c-0.4,0-0.5,0.4-0.6,0.9
		c-0.6,1.4-2.2,2.1-3.6,1.7c-2.4-0.5-4.1-2.5-4.1-4.9c0-2.7,2.1-4.9,4.8-5c0,0,0,0,0,0c0.1,0,0.1,0,0.2,0c1.4,0.1,2.6,0.8,3.2,2.1
		c1.7,5,5.8,18.8,7,25.4c0.3,1.4,0.4,2.3,0.5,2.6c0,0.2,0.2,0.4,0.4,0.4c0.2,0,0.3-0.1,0.3-0.3c1.1-3.5,2.4-4.4,4.6-6
		c1.1-0.8,1-0.6-0.3-1.7c-0.3-0.3-0.6-0.7-0.9-1.1c-0.1-0.2-0.1-0.4-0.2-0.6c0.9-3.8,3-10.6,3.5-12.1c0.7-2.4,1.9-4.5,3.6-6.3
		c0.4-0.4,0.8-0.7,1.3-0.9c0.3-0.2,0.7-0.2,0.9-0.4C40.3,37,40.1,36.7,39.6,36.7z"/>
	<path d="M80.8,26.3c-1.8,0-3.6-0.6-5-1.7c-0.2-0.1-0.2-0.4,0-0.5c0.1-0.1,0.3-0.2,0.5-0.1c1.3,1,2.9,1.5,4.6,1.5
		c1.6,0,3.2-0.5,4.5-1.5c0.2-0.1,0.4-0.1,0.5,0.1l0,0c0.1,0.2,0.1,0.4-0.1,0.5C84.3,25.7,82.6,26.3,80.8,26.3L80.8,26.3z"/>
	<path d="M74.2,22.8c-0.1,0-0.2-0.1-0.3-0.2c-1-1.4-1.5-3.1-1.5-4.8c0-4.6,3.8-8.4,8.4-8.4c4.6,0,8.4,3.8,8.4,8.4
		c0,1.7-0.5,3.3-1.4,4.7c-0.1,0.2-0.3,0.2-0.5,0.1c-0.2-0.1-0.2-0.3-0.1-0.5c0,0,0,0,0,0c2.4-3.5,1.4-8.3-2.1-10.7
		s-8.3-1.4-10.7,2.1c-0.8,1.3-1.3,2.8-1.3,4.3c0,1.6,0.5,3.1,1.4,4.4c0.1,0.2,0.1,0.4-0.1,0.5C74.3,22.8,74.3,22.8,74.2,22.8
		L74.2,22.8z"/>
	<path d="M80.9,21.2c-1.2,0-2.2-1-2.2-2.2c0-1.2,1-2.2,2.2-2.2c1.2,0,2.2,1,2.2,2.2c0,0,0,0,0,0C83.1,20.3,82.1,21.2,80.9,21.2
		C80.9,21.2,80.9,21.2,80.9,21.2z M80.9,17.5c-0.9,0-1.6,0.7-1.6,1.6s0.7,1.6,1.6,1.6c0.9,0,1.6-0.7,1.6-1.6l0,0l0,0
		C82.5,18.2,81.8,17.5,80.9,17.5z"/>
	<path d="M79.3,18.1c-0.2,0-0.4-0.2-0.4-0.4c0,0,0,0,0,0V10c0-0.2,0.2-0.4,0.4-0.3c0.2,0,0.3,0.2,0.3,0.3v7.8
		C79.7,18,79.5,18.1,79.3,18.1L79.3,18.1L79.3,18.1z"/>
	<path d="M82.5,18.2c-0.2,0-0.4-0.2-0.4-0.4c0,0,0,0,0,0V10c0-0.2,0.2-0.4,0.4-0.3c0.2,0,0.3,0.2,0.3,0.3v7.8
		C82.8,18.1,82.7,18.2,82.5,18.2C82.5,18.2,82.5,18.2,82.5,18.2L82.5,18.2z"/>
	<path d="M80.9,21.4c-2.8,0.1-5.6-0.6-8-2.1c-0.2-0.1-0.2-0.3-0.1-0.5c0.1-0.2,0.3-0.2,0.5-0.1c0,0,0,0,0,0
		c3.9,2.6,11.6,2.6,15.1-0.1c0.2-0.1,0.4-0.1,0.5,0.1c0.1,0.2,0.1,0.4-0.1,0.5C86.5,20.8,83.7,21.5,80.9,21.4L80.9,21.4z"/>
	<path d="M82.5,18.3c-0.2,0-0.4-0.2-0.4-0.4c0-0.2,0.1-0.4,0.3-0.4c2.1-0.2,4.1-0.8,6-1.9c0.2-0.1,0.4,0,0.5,0.1
		c0.1,0.2,0.1,0.4-0.1,0.5C86.9,17.5,84.8,18.1,82.5,18.3L82.5,18.3L82.5,18.3z"/>
	<path d="M79.1,18.4L79.1,18.4c-2.2-0.3-4.2-0.9-6.1-2c-0.2-0.1-0.2-0.3-0.2-0.5c0.1-0.2,0.3-0.2,0.5-0.2c0,0,0,0,0,0
		c1.8,1,3.7,1.6,5.8,1.9c0.2,0,0.3,0.2,0.3,0.4C79.4,18.2,79.3,18.4,79.1,18.4L79.1,18.4z"/>
	<circle cx="80.9" cy="11.4" r="0.6"/>
	<circle cx="80.9" cy="13.4" r="0.6"/>
	<circle cx="80.9" cy="15.4" r="0.6"/>
	<ellipse cx="84.8" cy="19.1" rx="0.6" ry="0.6"/>
	<ellipse cx="87.1" cy="18.3" rx="0.6" ry="0.6"/>
	<ellipse cx="76.9" cy="19" rx="0.6" ry="0.6"/>
	<ellipse cx="74.7" cy="18.3" rx="0.6" ry="0.6"/>
	<path d="M80.9,24.9c-9.4,0-19.1-2-19.1-5.5c0-2.3,4.3-4.2,11.5-5.1l0.6-0.1l-0.6,1.9l-0.2,0c-4.6,0.8-6.2,2-6.2,2.8
		c0,1.6,5.7,3.4,14,3.4s14-1.8,14-3.4c0-0.8-1.6-2.1-6.2-2.8l-0.2,0l-0.6-2l0.6,0.1C94,15,100,16.7,100,19.4
		C100,22.8,90.3,24.9,80.9,24.9L80.9,24.9z M72.9,15.2c-7.1,0.9-10.3,2.8-10.3,4.3c0,2.3,7.4,4.7,18.4,4.7s18.4-2.4,18.4-4.7
		c0-1.8-4.3-3.5-10.6-4.3l0.2,0.5c2.6,0.5,6.6,1.5,6.6,3.5c0,2.7-7.6,4.1-14.7,4.1s-14.7-1.5-14.7-4.1c0-2.1,4-3.1,6.6-3.5
		L72.9,15.2L72.9,15.2z"/>
	<path d="M83.7,10.8c-1.2-1-2.4-3.3-1.8-4.3C82.1,6.2,82.3,6,82.6,6c0.9,0.1,1.7,0.4,2.3,1V3.6c-1,0.8-2,1.2-2.8,0.4
		c-0.7-0.7,0.1-2.3,0.6-3.3H79c1,1.8,1,2.8,0.7,3.2c-0.6,0.7-1.5,0.6-2.8-0.3V7c0.6-0.6,1.4-1,2.3-1c0.3,0,0.6,0.2,0.7,0.5
		c0.7,1.2-0.8,3.2-1.9,4.2l-0.5-0.5c1.1-1.1,2.1-2.6,1.7-3.3c0-0.1-0.1-0.1-0.2-0.1c-0.5-0.1-1.7,0.8-2.3,1.4l-0.6,0.6V2.1l0.6,0.5
		c1.9,1.5,2.2,1,2.4,0.9c0.1-0.1,0.1-1-1-2.9L77.7,0H84l-0.4,0.6c-0.7,1.1-1.3,2.6-1.1,2.9C82.9,3.8,83.4,4,85,2.5L85.7,2v6.7
		L85,8.1c-0.6-0.6-1.8-1.5-2.3-1.4c-0.1,0-0.1,0.1-0.2,0.1c-0.3,0.5,0.5,2.5,1.6,3.4L83.7,10.8z"/>
	<path d="M80.9,7.3c-1.2,0-2.1-0.9-2.1-2.1C78.7,4,79.7,3,80.9,3S83,4,83,5.1l0,0C83,6.3,82,7.3,80.9,7.3L80.9,7.3z M80.9,3.7
		c-0.8,0-1.5,0.7-1.5,1.5s0.7,1.5,1.5,1.5s1.5-0.7,1.5-1.5C82.3,4.3,81.7,3.7,80.9,3.7C80.9,3.7,80.9,3.7,80.9,3.7z"/>
</g>
</svg>
