<?xml version="1.0" encoding="utf-8"?>
<!-- Generator: Adobe Illustrator 27.0.1, SVG Export Plug-In . SVG Version: 6.00 Build 0)  -->
<svg version="1.1" id="Layer_1" xmlns="http://www.w3.org/2000/svg" xmlns:xlink="http://www.w3.org/1999/xlink" x="0px" y="0px"
	 viewBox="0 0 32 29" style="enable-background:new 0 0 32 29;" xml:space="preserve">
<style type="text/css">
	.st0{fill:#FFFFFF;}
</style>
<g id="Group_3" transform="translate(-6727 -379)">
	<path id="Rectangle_129" class="st0" d="M6728,391h30c0.6,0,1,0.4,1,1v3c0,0.6-0.4,1-1,1h-30c-0.6,0-1-0.4-1-1v-3
		C6727,391.4,6727.4,391,6728,391z"/>
	<path id="Rectangle_130" class="st0" d="M6728,379h30c0.6,0,1,0.4,1,1v3c0,0.6-0.4,1-1,1h-30c-0.6,0-1-0.4-1-1v-3
		C6727,379.4,6727.4,379,6728,379z"/>
	<path id="Rectangle_131" class="st0" d="M6728,403h30c0.6,0,1,0.4,1,1v3c0,0.6-0.4,1-1,1h-30c-0.6,0-1-0.4-1-1v-3
		C6727,403.4,6727.4,403,6728,403z"/>
</g>
</svg>
