<?xml version="1.0" encoding="utf-8"?>
<!-- Generator: Adobe Illustrator 27.0.1, SVG Export Plug-In . SVG Version: 6.00 Build 0)  -->
<svg version="1.1" id="Layer_1" xmlns="http://www.w3.org/2000/svg" xmlns:xlink="http://www.w3.org/1999/xlink" x="0px" y="0px"
	 viewBox="0 0 100 100" style="enable-background:new 0 0 100 100;" xml:space="preserve">
<path id="Path_30" d="M32.4,85.8l4.5-49.4c0-3.8,3.1-6.9,7-6.9c3.8,0,7,3.1,7,7c0,1-0.2,2-0.6,2.9l-6,18.5c3,2.5,6.8,3.9,10.7,4.1
	c1.5,0,3-0.2,4.5-0.7c2-0.7,3.8-1.8,5.2-3.4c1.9-2.2,3.4-4.8,4.3-7.7c3.4-10,2.5-19.6-1.3-25c-3.7-5.5-11.7-6.7-14.5-6.8
	s-11.7,0.8-15.7,3.1c-4.2,2.3-7.5,5.9-9.5,10.3c-1.9,4.2-1.4,9.8-0.6,13.7c0.5,2.7,1.3,5.4,2.3,8c0.5,1.3-0.1,2.8-1.4,3.3
	c-1.3,0.5-2.8-0.1-3.3-1.4c-1.1-2.9-2-5.8-2.6-8.8c-0.6-2.7-0.8-5.5-0.8-8.2c0-3,0.6-5.9,1.7-8.7c2.4-5.3,6.5-9.7,11.6-12.6
	c5.7-3.2,12.2-4.6,18.7-4.1c4,0.3,7.8,1.4,11.3,3.2c3.8,2,7,4.9,9.4,8.4c3.6,5.4,6.9,15,1.9,29.5c-1.1,3.5-3,6.7-5.4,9.5
	c-2,2.2-4.5,3.8-7.3,4.7c-1.9,0.6-4,0.9-6,0.9c-6.2,0-12.1-2.6-15.4-4.4l-7,21.4c-0.1,0.6-0.6,1-1.2,0.9c-0.7,0-1.3-0.5-1.3-1.2
	C32.4,85.9,32.4,85.8,32.4,85.8z"/>
</svg>
