<?xml version="1.0" encoding="utf-8"?>
<!-- Generator: Adobe Illustrator 27.0.1, SVG Export Plug-In . SVG Version: 6.00 Build 0)  -->
<svg version="1.1" id="Layer_1" xmlns="http://www.w3.org/2000/svg" xmlns:xlink="http://www.w3.org/1999/xlink" x="0px" y="0px"
	 viewBox="0 0 100 100" style="enable-background:new 0 0 100 100;" xml:space="preserve">
<style type="text/css">
	.st0{fill:#FFFFFF;}
</style>
<path id="Path_29" class="st0" d="M6.7,81.8c0,0,12.2-1.2,18.1-3.4c3.1-1,5.6-3.3,6.9-6.3C22,73.9,13.8,59.2,13.8,59.2
	c2.4,0.8,4.8,1.5,7.2,2C13.1,56.5,6.7,39.9,6.7,39.9c2.5,0.9,5.1,1.6,7.8,2.1h0.1C5.7,36.2,8,16.8,8,16.8c4.4,6,10.2,10.8,16.9,14.2
	c8.3,4,19.7,5.6,24.3,6.2c-0.4-1.6-0.6-3.3-0.6-4.9c0-10.6,8.6-19.3,19.3-19.3c4.5,0,8.9,1.6,12.4,4.5l11-0.2l-5.9,6.8
	c0,0.1,0.1,0.2,0.1,0.3l8.1-0.5l-6.4,6.7c0,0.5,0.1,0.9,0.1,1.4c1.2,11.1-1.8,22.3-8.6,31.2c-8.6,11.1-17.2,16-21,17.7
	C52.3,84,46.3,86.1,40.1,87c-1.8,0.2-3.6,0.3-5.4,0.3C20.8,87.1,6.7,81.8,6.7,81.8z M28,61.3C28,61.3,28.1,61.3,28,61.3L28,61.3
	C28,61.2,28,61.2,28,61.3L28,61.3z"/>
</svg>
